<?xml version="1.0" encoding="UTF-8" standalone="no"?>
<svg
   version="1.1"
   width="400"
   height="400"
   viewBox="0 0 400 400"
   xml:space="preserve"
   id="svg3"
   sodipodi:docname="ui.svg"
   inkscape:version="1.3 (0e150ed6c4, 2023-07-21)"
   inkscape:export-filename="ui_bg"
   inkscape:export-xdpi="96"
   inkscape:export-ydpi="96"
   xmlns:inkscape="http://www.inkscape.org/namespaces/inkscape"
   xmlns:sodipodi="http://sodipodi.sourceforge.net/DTD/sodipodi-0.dtd"
   xmlns="http://www.w3.org/2000/svg"
   xmlns:svg="http://www.w3.org/2000/svg"><sodipodi:namedview
   id="namedview3"
   pagecolor="#ffffff"
   bordercolor="#666666"
   borderopacity="1.0"
   inkscape:showpageshadow="2"
   inkscape:pageopacity="0.0"
   inkscape:pagecheckerboard="0"
   inkscape:deskcolor="#d1d1d1"
   showgrid="false"
   inkscape:zoom="1.0367953"
   inkscape:cx="277.77903"
   inkscape:cy="348.67056"
   inkscape:window-width="2560"
   inkscape:window-height="1369"
   inkscape:window-x="-8"
   inkscape:window-y="-8"
   inkscape:window-maximized="1"
   inkscape:current-layer="layer2" />&#10;<desc
   id="desc1">Created with Fabric.js 5.3.0</desc>&#10;<defs
   id="defs1">&#10;</defs>&#10;&#10;&#10;<g
   inkscape:groupmode="layer"
   id="layer1"
   inkscape:label="bg"
   style="display:inline"><g
     id="g5"
     transform="scale(1.025641)"
     style="display:inline;stroke-width:0.975"
     inkscape:label="background"
     inkscape:export-filename="ui_bg.png"
     inkscape:export-xdpi="96"
     inkscape:export-ydpi="96"><rect
       style="display:inline;fill:#1b1b24;fill-opacity:0.8;stroke:none;stroke-width:0.952122;stroke-dasharray:none;stroke-opacity:1"
       id="rect7"
       width="390"
       height="390"
       x="0"
       y="0"
       ry="50.468884" /></g></g><g
   inkscape:groupmode="layer"
   id="layer2"
   inkscape:label="frame"
   style="display:inline"><path
     id="rect3"
     style="display:inline;stroke-width:0.952122;fill:#181818;fill-opacity:1;stroke:none;stroke-dasharray:none;stroke-opacity:1"
     d="M 50.469581 0 C 22.509848 0 3.1237651e-16 22.509848 0 50.469581 L 0 339.53043 C 0 367.49016 22.509848 390.00001 50.469581 390.00001 L 339.53043 390.00001 C 367.49016 390.00001 390.00001 367.49016 390.00001 339.53043 L 390.00001 50.469581 C 390.00001 22.509848 367.49016 3.1237651e-16 339.53043 0 L 50.469581 0 z M 111.59561 61.126027 L 278.4044 61.126027 C 306.36413 61.126027 328.87398 83.635876 328.87398 111.59561 L 328.87398 278.4044 C 328.87398 306.36413 306.36413 328.87398 278.4044 328.87398 L 111.59561 328.87398 C 83.635876 328.87398 61.126027 306.36413 61.126027 278.4044 L 61.126027 111.59561 C 61.126027 83.635876 83.635876 61.126027 111.59561 61.126027 z "
     transform="scale(1.025641)" /></g></svg>
