<?xml version="1.0" encoding="UTF-8" standalone="no"?>
<svg
   version="1.1"
   width="400"
   height="400"
   viewBox="0 0 400 400"
   xml:space="preserve"
   id="svg3"
   sodipodi:docname="ui2.svg"
   inkscape:version="1.3 (0e150ed6c4, 2023-07-21)"
   inkscape:export-filename="ui_frame.png"
   inkscape:export-xdpi="96"
   inkscape:export-ydpi="96"
   xmlns:inkscape="http://www.inkscape.org/namespaces/inkscape"
   xmlns:sodipodi="http://sodipodi.sourceforge.net/DTD/sodipodi-0.dtd"
   xmlns="http://www.w3.org/2000/svg"
   xmlns:svg="http://www.w3.org/2000/svg"><sodipodi:namedview
   id="namedview3"
   pagecolor="#ffffff"
   bordercolor="#666666"
   borderopacity="1.0"
   inkscape:showpageshadow="2"
   inkscape:pageopacity="0.0"
   inkscape:pagecheckerboard="0"
   inkscape:deskcolor="#d1d1d1"
   showgrid="false"
   inkscape:zoom="2"
   inkscape:cx="178"
   inkscape:cy="145.75"
   inkscape:window-width="2560"
   inkscape:window-height="1369"
   inkscape:window-x="-8"
   inkscape:window-y="-8"
   inkscape:window-maximized="1"
   inkscape:current-layer="layer1" />&#10;<desc
   id="desc1">Created with Fabric.js 5.3.0</desc>&#10;<defs
   id="defs1"><inkscape:path-effect
   effect="rough_hatches"
   id="path-effect110"
   is_visible="true"
   lpeversion="1.2"
   direction="197.27138,20.302713 , 58.125,0"
   dist_rdm="1.8;1"
   growth="0"
   do_bend="false"
   bender="197.27138,25.302713 , 5,0"
   bottom_edge_variation="3.119536;1"
   top_edge_variation="3.119536;1"
   bottom_tgt_variation="0;1"
   top_tgt_variation="0;1"
   scale_bf="1"
   scale_bb="1"
   scale_tf="1"
   scale_tb="1"
   top_smth_variation="0;1"
   bottom_smth_variation="0;1"
   fat_output="true"
   stroke_width_top="1"
   stroke_width_bottom="1"
   front_thickness="1"
   back_thickness="0.25" /><inkscape:path-effect
   effect="gears"
   id="path-effect109"
   is_visible="true"
   lpeversion="1"
   teeth="10"
   phi="5"
   min_radius="5" /><inkscape:path-effect
   effect="copy_rotate"
   starting_point="0,0"
   origin="81.021379,25.302713"
   id="path-effect108"
   is_visible="true"
   lpeversion="1.2"
   lpesatellites=""
   method="normal"
   num_copies="5"
   starting_angle="0"
   rotation_angle="60"
   gap="-0.01"
   copies_to_360="true"
   mirror_copies="false"
   split_items="false"
   link_styles="false" /><inkscape:path-effect
   effect="clone_original"
   linkeditem=""
   id="path-effect107"
   is_visible="true"
   lpeversion="1"
   method="bsplinespiro"
   attributes=""
   css_properties="top: 10pt"
   allow_transforms="true" /><inkscape:path-effect
   effect="vonkoch"
   id="path-effect106"
   is_visible="true"
   lpeversion="1"
   ref_path="M 81.021379,25.302713 H 313.52138"
   generator="m 81.021379,40.900393 h 77.500001 m 77.5,0 h 77.5"
   similar_only="false"
   nbgenerations="1"
   drawall="true"
   maxComplexity="1000" /><rect
   x="171.11984"
   y="103.9447"
   width="305.47013"
   height="67.771037"
   id="rect1" />&#10;<filter
   inkscape:label="Metallized Paint"
   inkscape:menu="Materials"
   inkscape:menu-tooltip="Metallized effect with a soft lighting, slightly translucent at the edges"
   style="color-interpolation-filters:sRGB"
   id="filter50"
   x="-0.070769229"
   y="-0.070769229"
   width="1.1415385"
   height="1.1415385"><feGaussianBlur
     stdDeviation="1"
     result="result1"
     id="feGaussianBlur45" /><feComposite
     in="result1"
     in2="result1"
     result="result4"
     operator="in"
     id="feComposite45" /><feBlend
     in="result1"
     mode="screen"
     result="result5"
     in2="result4"
     id="feBlend45" /><feGaussianBlur
     stdDeviation="8"
     result="result6"
     in="result5"
     id="feGaussianBlur46" /><feComposite
     operator="atop"
     in="result6"
     in2="result5"
     result="result8"
     id="feComposite46" /><feComposite
     operator="in"
     result="fbSourceGraphic"
     in="result6"
     in2="result8"
     id="feComposite47" /><feGaussianBlur
     result="result0"
     in="fbSourceGraphic"
     stdDeviation="2.5"
     id="feGaussianBlur47" /><feSpecularLighting
     specularExponent="45"
     specularConstant="1.5"
     surfaceScale="1"
     lighting-color="#ffffff"
     result="result1"
     in="result0"
     id="feSpecularLighting47"><fePointLight
       z="21000"
       y="-9000"
       x="-6000"
       id="fePointLight47" /></feSpecularLighting><feComposite
     operator="in"
     result="result2"
     in="result1"
     in2="fbSourceGraphic"
     id="feComposite48" /><feComposite
     k3="1"
     k2="1"
     operator="arithmetic"
     result="result4"
     in="fbSourceGraphic"
     in2="result2"
     id="feComposite49"
     k1="0"
     k4="0" /><feComposite
     operator="in"
     in="result9"
     in2="result4"
     result="result91"
     id="feComposite50" /><feBlend
     mode="multiply"
     in2="result91"
     id="feBlend50" /></filter><rect
   x="171.11984"
   y="103.9447"
   width="305.47013"
   height="67.771037"
   id="rect95" /><filter
   inkscape:label="Refractive Gel A"
   inkscape:menu="Ridges"
   inkscape:menu-tooltip="Gel effect with light refraction"
   height="1.1410256"
   width="1.1410256"
   y="-0.06153846"
   x="-0.06153846"
   style="color-interpolation-filters:sRGB;"
   id="filter126"><feOffset
     dx="7"
     dy="7"
     in="SourceAlpha"
     result="result3"
     id="feOffset123" /><feGaussianBlur
     stdDeviation="8"
     in="result3"
     result="result1"
     id="feGaussianBlur123" /><feComposite
     operator="in"
     in2="result1"
     in="SourceGraphic"
     result="result2"
     id="feComposite123" /><feComposite
     operator="out"
     result="fbSourceGraphic"
     in="result2"
     in2="result2"
     id="feComposite124" /><feColorMatrix
     result="fbSourceGraphicAlpha"
     in="fbSourceGraphic"
     values="0 0 0 -1 0 0 0 0 -1 0 0 0 0 1 0 0 0 0 4 0 "
     id="feColorMatrix124" /><feGaussianBlur
     result="result0"
     in="fbSourceGraphicAlpha"
     stdDeviation="2"
     id="feGaussianBlur124" /><feSpecularLighting
     specularExponent="20"
     specularConstant="1.2"
     surfaceScale="3"
     lighting-color="rgb(255,255,255)"
     result="result1"
     in="result0"
     id="feSpecularLighting124"><feDistantLight
       azimuth="235"
       elevation="45"
       id="feDistantLight124" /></feSpecularLighting><feComposite
     operator="in"
     result="result2"
     in="result1"
     in2="fbSourceGraphicAlpha"
     id="feComposite125" /><feComposite
     in="fbSourceGraphic"
     operator="arithmetic"
     k2="2"
     k3="2"
     in2="result2"
     result="result91"
     id="feComposite126" /><feBlend
     mode="multiply"
     in2="result91"
     id="feBlend126" /></filter><filter
   inkscape:label="Metallized Ridge"
   inkscape:menu="Ridges"
   inkscape:menu-tooltip="Gel Ridge metallized at its top"
   height="2.9906822"
   y="-0.99534111"
   width="2.3904983"
   x="-0.69524916"
   style="color-interpolation-filters:sRGB;"
   id="filter131"><feGaussianBlur
     stdDeviation="1"
     result="result1"
     id="feGaussianBlur126" /><feGaussianBlur
     stdDeviation="8"
     result="result6"
     in="result1"
     id="feGaussianBlur127" /><feComposite
     operator="atop"
     in="result6"
     in2="result1"
     result="result8"
     id="feComposite127" /><feComposite
     operator="xor"
     result="fbSourceGraphic"
     in="result6"
     in2="result8"
     id="feComposite128" /><feColorMatrix
     result="fbSourceGraphicAlpha"
     in="fbSourceGraphic"
     values="0 0 0 -1 0 0 0 0 -1 0 0 0 0 -1 0 0 0 0 2 0 "
     id="feColorMatrix128" /><feGaussianBlur
     result="result0"
     in="fbSourceGraphicAlpha"
     stdDeviation="2.5"
     id="feGaussianBlur128" /><feSpecularLighting
     specularExponent="35"
     specularConstant="1"
     surfaceScale="4"
     lighting-color="rgb(255,255,255)"
     result="result1"
     in="result0"
     id="feSpecularLighting128"><fePointLight
       z="20000"
       y="-10000"
       x="-5000"
       id="fePointLight128" /></feSpecularLighting><feComposite
     operator="in"
     result="result2"
     in="result1"
     in2="fbSourceGraphicAlpha"
     id="feComposite129" /><feComposite
     k3="1"
     k2="1"
     operator="arithmetic"
     result="result4"
     in="fbSourceGraphic"
     in2="result2"
     id="feComposite130" /><feComposite
     operator="atop"
     in="result9"
     in2="result4"
     result="result91"
     id="feComposite131" /><feBlend
     mode="multiply"
     in2="result91"
     id="feBlend131" /></filter></defs>&#10;&#10;&#10;<g
   inkscape:groupmode="layer"
   id="layer1"
   inkscape:label="bg"
   style="display:inline"
   sodipodi:insensitive="true"><g
     id="g5"
     transform="scale(0.99871792,0.99743587)"
     style="display:inline;stroke-width:1.00193"
     inkscape:label="background"
     inkscape:export-filename="ui_bg.png"
     inkscape:export-xdpi="96"
     inkscape:export-ydpi="96"><rect
       style="display:inline;fill:#1b1b24;fill-opacity:0.8;stroke:none;stroke-width:0.978417;stroke-dasharray:none;stroke-opacity:1"
       id="rect7"
       width="390"
       height="390"
       x="0"
       y="0"
       ry="51.896023"
       rx="51.829407" /></g></g><g
   inkscape:groupmode="layer"
   id="layer2"
   inkscape:label="frame"
   style="display:inline"><path
     id="rect3"
     style="display:inline;fill:#484848;fill-opacity:1;stroke:none;stroke-width:0.952122;stroke-dasharray:none;stroke-opacity:1;filter:url(#filter50)"
     d="M 50.469581,0 C 22.509848,0 0,22.509848 0,50.469581 V 339.53043 c 0,27.95973 22.509848,50.46958 50.469581,50.46958 H 339.53043 c 27.95973,0 50.46958,-22.50985 50.46958,-50.46958 V 50.469581 C 390.00001,22.509848 367.49016,0 339.53043,0 Z M 111.59561,61.126027 H 278.4044 c 27.95973,0 50.46958,22.509849 50.46958,50.469583 V 278.4044 c 0,27.95973 -22.50985,50.46958 -50.46958,50.46958 H 111.59561 c -27.959734,0 -50.469583,-22.50985 -50.469583,-50.46958 V 111.59561 c 0,-27.959734 22.509849,-50.469583 50.469583,-50.469583 z"
     inkscape:label="frame"
     inkscape:export-filename="ui_frame.png"
     inkscape:export-xdpi="96"
     inkscape:export-ydpi="96"
     transform="scale(1.025641)" /><text
     xml:space="preserve"
     id="text95"
     style="font-size:42.6667px;line-height:1.25;font-family:sans-serif;letter-spacing:-3px;word-spacing:0px;white-space:pre;shape-inside:url(#rect95);display:inline;fill:#666666;filter:url(#filter131)"
     transform="translate(-77.523528,-100.52313)"><tspan
       x="171.11914"
       y="142.76668"
       id="tspan4"><tspan
         style="font-weight:bold;font-family:'Courier New';-inkscape-font-specification:'Courier New Bold'"
         id="tspan3">Concordia</tspan></tspan></text><path
     style="display:inline;fill:#4d4d4d;stroke-width:0.999999;filter:url(#filter131)"
     d="m 350.78537,69.454475 c -1.58626,-0.159002 -3.6011,-0.633873 -5.01769,-1.182603 -0.9847,-0.381431 -2.90432,-1.375659 -3.76824,-1.951699 -1.67945,-1.119798 -3.64064,-2.959538 -4.85789,-4.557057 -1.28961,-1.692466 -2.55418,-4.044271 -3.23953,-6.024761 -0.54292,-1.568919 -0.96286,-3.596816 -1.12312,-5.423493 -0.45777,-5.217719 1.14655,-10.75838 4.32109,-14.92329 0.79028,-1.036809 2.48289,-2.776672 3.44085,-3.536887 1.5404,-1.222429 3.47321,-2.339037 5.23796,-3.02603 1.0527,-0.409804 2.89013,-0.888683 4.11392,-1.07219 1.48322,-0.222406 4.11734,-0.205361 5.58873,0.03616 2.52502,0.414477 4.66491,1.194085 6.86947,2.502695 1.70476,1.011931 3.06834,2.139293 4.54084,3.754221 1.55773,1.708399 2.59629,3.287856 3.57511,5.437079 0.91108,2.000482 1.48515,3.996256 1.7939,6.23646 0.18641,1.352613 0.18552,4.288266 -0.002,5.65773 -0.49074,3.589048 -1.82812,6.992717 -3.88161,9.878813 -0.69364,0.974871 -2.33503,2.767389 -3.2635,3.563966 -3.98705,3.420692 -9.29323,5.135609 -14.32856,4.630883 z m -4.4488,-11.065522 c 0.28242,-0.140762 1.08931,-0.938583 3.30388,-3.26676 l 2.9302,-3.080501 2.9302,3.080501 c 3.29935,3.468589 3.30637,3.474281 4.28857,3.474281 1.34761,0 2.28449,-0.990374 2.28822,-2.418888 0.003,-1.036585 -0.002,-1.043163 -3.2873,-4.530289 l -2.91614,-3.095349 2.91614,-3.095356 c 3.28352,-3.485308 3.28891,-3.492725 3.28891,-4.530282 0,-0.508131 -0.0379,-0.69652 -0.21819,-1.084337 -0.4114,-0.885 -1.28988,-1.427191 -2.19282,-1.353379 -0.91966,0.07517 -0.97896,0.12477 -4.16765,3.485546 l -2.93081,3.088989 -2.77452,-2.916732 c -1.52598,-1.604209 -2.88008,-2.992745 -3.0091,-3.085644 -0.36357,-0.261777 -1.09315,-0.457061 -1.4919,-0.399327 -1.08477,0.157066 -1.93799,1.060147 -2.08706,2.209007 -0.054,0.416027 0.13242,1.18936 0.37867,1.570989 0.0879,0.136293 1.40239,1.566704 2.921,3.178701 l 2.76111,2.930899 -2.92417,3.096004 c -2.28815,2.422603 -2.95964,3.180698 -3.08722,3.485381 -0.72302,1.726632 0.4756,3.59835 2.22615,3.476277 0.27784,-0.01937 0.63758,-0.111951 0.85383,-0.219731 z"
     id="path126" /></g><g
   inkscape:groupmode="layer"
   id="layer3"
   inkscape:label="controls"
   style="display:inline"><rect
     style="fill:#ffffff;fill-opacity:1;stroke-width:1.00157"
     id="rect30"
     width="167"
     height="10.5"
     x="135.5"
     y="245.91855" /><path
     style="fill:#ffffff;fill-opacity:1;stroke-width:0.999998"
     d="m 108.25359,307.97984 c -0.23512,-0.1371 -1.65737,-1.50748 -4.00839,-3.86221 l -3.64396,-3.64971 -2.004593,-5.9e-4 c -1.102532,-2.8e-4 -2.217798,-0.0349 -2.478358,-0.0768 -0.639642,-0.10279 -1.15885,-0.35229 -1.611013,-0.77405 -0.46057,-0.42957 -0.670616,-0.7521 -0.864347,-1.32719 -0.143855,-0.42702 -0.148479,-0.60211 -0.148479,-5.62016 0,-5.01807 0.0041,-5.19314 0.148479,-5.62016 0.193731,-0.5751 0.403777,-0.89762 0.864347,-1.32721 0.452163,-0.42174 0.971371,-0.6712 1.611013,-0.77403 0.26056,-0.0419 1.37527,-0.0763 2.477138,-0.0768 l 2.003383,-5.9e-4 3.71806,-3.70987 c 2.45506,-2.44965 3.8223,-3.76184 4.02492,-3.86287 0.7213,-0.35969 1.62435,-0.0753 2.00981,0.63289 l 0.19785,0.36353 -6.5e-4,14.38485 -6.6e-4,14.38486 -0.21051,0.367 c -0.42596,0.74261 -1.33919,0.98312 -2.08399,0.54885 z m 9.9713,-4.05231 c -0.64016,-0.31899 -0.96969,-1.00061 -0.82038,-1.69683 0.0663,-0.3094 0.18546,-0.48719 0.77393,-1.15533 1.67884,-1.90608 2.67383,-3.92408 3.09617,-6.2795 0.11663,-0.6506 0.15262,-1.15163 0.15262,-2.12661 0,-0.97496 -0.0359,-1.47601 -0.15262,-2.1266 -0.42234,-2.35541 -1.41733,-4.37342 -3.09617,-6.2795 -0.58847,-0.66814 -0.70758,-0.84592 -0.77393,-1.15533 -0.14931,-0.69622 0.18022,-1.37783 0.82038,-1.69683 0.40805,-0.20334 0.71708,-0.2292 1.17158,-0.098 0.36592,0.10564 1.14836,0.86623 1.92391,1.87035 4.31104,5.58154 4.31104,13.39042 0,18.97197 -0.77555,1.00412 -1.55799,1.76477 -1.92391,1.87035 -0.4545,0.13114 -0.76353,0.10523 -1.17158,-0.098 z m -4.06751,-4.27147 c -0.44285,-0.10333 -0.81033,-0.3972 -1.01812,-0.81415 -0.33511,-0.67249 -0.21869,-1.21008 0.41809,-1.93053 0.60865,-0.68865 1.08825,-1.50243 1.37277,-2.32936 0.23864,-0.69356 0.24434,-0.73825 0.24434,-1.91276 0,-1.1745 -0.005,-1.21918 -0.24434,-1.91274 -0.28498,-0.82825 -0.76424,-1.64085 -1.3759,-2.33291 -0.66791,-0.75568 -0.76683,-1.37641 -0.33156,-2.08044 0.39442,-0.63797 1.28781,-0.88402 1.96162,-0.54025 0.59706,0.30459 1.59419,1.56012 2.17266,2.73569 0.69579,1.414 0.95067,2.52141 0.95067,4.13065 0,0.8072 -0.0373,1.30658 -0.13073,1.74924 -0.36756,1.74277 -1.1531,3.2993 -2.27853,4.51491 -0.609,0.65779 -1.11642,0.86841 -1.74104,0.72265 z"
     id="path30"
     inkscape:label="vol" /><rect
     style="fill:#ffffff;fill-opacity:1;stroke-width:1.00157"
     id="rect31"
     width="167"
     height="10.5"
     x="135.5"
     y="287.41855" /><path
     style="fill:#ffffff;fill-opacity:1;stroke-width:1"
     d="m 100.36825,266.78219 c -0.95864,-0.47451 -0.94752,-1.87811 0.0184,-2.31679 0.26943,-0.12237 0.51942,-0.13444 2.81617,-0.13589 l 2.52049,-0.002 -0.0194,-1.7578 -0.0194,-1.75779 -0.54896,-0.0836 c -3.53207,-0.53797 -6.78299,-2.8322 -8.499374,-5.99818 -0.894133,-1.64926 -1.321187,-3.17289 -1.466559,-5.23243 -0.03696,-0.52329 -0.02224,-0.71495 0.07245,-0.94145 0.273362,-0.65424 0.845265,-0.96672 1.500039,-0.8196 0.700134,0.1573 0.96322,0.55959 1.036182,1.58441 0.144527,2.03001 0.665052,3.55939 1.703642,5.00556 1.40566,1.95728 3.35617,3.2305 5.73382,3.74282 0.85769,0.18481 2.76214,0.18481 3.61983,0 2.37766,-0.51232 4.32817,-1.78554 5.73382,-3.74282 1.0386,-1.44617 1.55912,-2.97555 1.70364,-5.00556 0.073,-1.02482 0.33606,-1.42711 1.03619,-1.58441 0.65477,-0.14712 1.22668,0.16536 1.50004,0.8196 0.27321,0.65392 -0.12225,3.22598 -0.73443,4.77659 -1.54564,3.91501 -5.0882,6.77544 -9.15905,7.39547 l -0.54897,0.0836 -0.0194,1.75779 -0.0194,1.7578 2.5205,0.002 c 2.29675,10e-4 2.54673,0.0136 2.81616,0.13589 0.96883,0.44002 0.97641,1.85192 0.0124,2.31857 -0.31628,0.15311 -0.34509,0.15377 -6.6562,0.15372 -6.33457,-5e-5 -6.33875,-1.6e-4 -6.65257,-0.1555 z m 5.70142,-10.57935 c -3.12139,-0.4579 -5.52119,-2.73368 -6.19969,-5.87932 -0.11987,-0.55574 -0.13013,-1.12949 -0.13013,-7.27286 0,-7.30785 -0.0104,-7.11283 0.44032,-8.40248 0.47528,-1.36047 1.51127,-2.70719 2.70632,-3.51804 2.23846,-1.51883 4.98706,-1.71611 7.36512,-0.52862 2.04632,1.02183 3.37237,2.74385 3.92026,5.09089 0.11424,0.48937 0.1299,1.15607 0.1566,6.66954 0.0303,6.25718 -0.007,7.56246 -0.23985,8.39688 -0.4425,1.58547 -1.26019,2.8749 -2.44206,3.85091 -0.56632,0.46767 -1.62794,1.05374 -2.35439,1.29973 -0.94448,0.31983 -2.23884,0.43766 -3.2225,0.29337 z"
     id="path31"
     inkscape:label="mic"
     inkscape:export-filename=".\ui_mic.png"
     inkscape:export-xdpi="96"
     inkscape:export-ydpi="96" /></g></svg>
