<?xml version="1.0" encoding="UTF-8" standalone="no" ?>
<!DOCTYPE svg PUBLIC "-//W3C//DTD SVG 1.1//EN" "http://www.w3.org/Graphics/SVG/1.1/DTD/svg11.dtd">
<svg xmlns="http://www.w3.org/2000/svg" xmlns:xlink="http://www.w3.org/1999/xlink" version="1.1" width="400" height="400" viewBox="0 0 400 400" xml:space="preserve">
<desc>Created with Fabric.js 5.3.0</desc>
<defs>
</defs>
<g transform="matrix(1.3393767684 0 0 1.3393767684 197 197)" id="G8KPNhq4d_tw8m79uiuM-"  >
<path style="stroke:white;stroke-width: 0; stroke-dasharray: none; stroke-linecap: butt; stroke-dashoffset: 0; stroke-linejoin: miter; stroke-miterlimit: 4; stroke: white;fill-rule: nonzero; opacity: 1;filter: url(#SVGID_93);"  transform=" translate(0, 0)" d="M -147.08333 -84.68116 C -147.08333 -119.14493 -119.14492999999999 -147.08333 -84.68115999999999 -147.08333 L 84.68116000000002 -147.08333 L 84.68116000000002 -147.08333 C 119.14493000000002 -147.08333 147.08333000000002 -119.14492999999999 147.08333000000002 -84.68115999999999 L 147.08333000000002 84.68116000000002 L 147.08333000000002 84.68116000000002 C 147.08333000000002 119.14493000000002 119.14493000000002 147.08333000000002 84.68116000000002 147.08333000000002 L -84.68115999999999 147.08333000000002 L -84.68115999999999 147.08333000000002 C -119.14492999999999 147.08333000000002 -147.08333 119.14493000000002 -147.08333 84.68116000000002 z" stroke-linecap="round" />
<filter id="SVGID_93" y="-21.35977337%" height="142.71954674%" x="-21.35977337%" width="142.71954674%" >
	<feGaussianBlur in="SourceAlpha" stdDeviation="0"></feGaussianBlur>
	<feOffset dx="4" dy="4" result="oBlur" ></feOffset>
	<feFlood flood-color="rgb(0,0,0)" flood-opacity="0.4"/>
	<feComposite in2="oBlur" operator="in" />
	<feMerge>
		<feMergeNode></feMergeNode>
		<feMergeNode in="SourceGraphic"></feMergeNode>
	</feMerge>
</filter>
<path style="stroke: rgb(170,65,78); stroke-width: 0; stroke-dasharray: none; stroke-linecap: butt; stroke-dashoffset: 0; stroke-linejoin: miter; stroke-miterlimit: 4; fill: rgb(45,46,61); fill-rule: nonzero; opacity: 1;"  transform=" translate(0, 0)" d="M -147.08333 -84.68116 C -147.08333 -119.14493 -119.14492999999999 -147.08333 -84.68115999999999 -147.08333 L 84.68116000000002 -147.08333 L 84.68116000000002 -147.08333 C 119.14493000000002 -147.08333 147.08333000000002 -119.14492999999999 147.08333000000002 -84.68115999999999 L 147.08333000000002 84.68116000000002 L 147.08333000000002 84.68116000000002 C 147.08333000000002 119.14493000000002 119.14493000000002 147.08333000000002 84.68116000000002 147.08333000000002 L -84.68115999999999 147.08333000000002 L -84.68115999999999 147.08333000000002 C -119.14492999999999 147.08333000000002 -147.08333 119.14493000000002 -147.08333 84.68116000000002 z" stroke-linecap="round" />
</g>
<g transform="matrix(3.0503225298 0 0 1.6258064245 197.2083314567 197)" id="HBRwso-t-1_sqybVBH64w"  >
<path style="stroke: rgb(27,115,222); stroke-width: 0; stroke-dasharray: none; stroke-linecap: butt; stroke-dashoffset: 0; stroke-linejoin: miter; stroke-miterlimit: 4; fill: rgb(27,27,36); fill-rule: nonzero; opacity: 1;"  transform=" translate(0, 0)" d="M -64.58333 -64.58333 L 64.58334 -64.58333 L 64.58334 64.58334 L -64.58333 64.58334 z" stroke-linecap="round" />
</g>
</svg>